<?xml version="1.0" encoding="utf-8"?>
<!-- Generator: Adobe Illustrator 16.0.0, SVG Export Plug-In . SVG Version: 6.00 Build 0)  -->
<!DOCTYPE svg PUBLIC "-//W3C//DTD SVG 1.1//EN" "http://www.w3.org/Graphics/SVG/1.1/DTD/svg11.dtd">
<svg version="1.1" id="Calque_1" xmlns="http://www.w3.org/2000/svg" xmlns:xlink="http://www.w3.org/1999/xlink" x="0px" y="0px"
	 width="1280px" height="800px" viewBox="0 0 1280 800" enable-background="new 0 0 1280 800" xml:space="preserve">
<g>
	<path d="M658.739,360.583v-25.024h25.022v25.024H658.739z"/>
	<polygon points="677.374,465.197 674.25,465.197 670.875,465.197 661.875,465.197 658.739,465.197 658.739,440.174 
		683.763,440.174 683.763,465.197 680.75,465.197 	"/>
</g>
<g display="none">
	<path display="inline" d="M658.739,360.583v-25.024h25.022v25.024H658.739z"/>
	<polygon display="inline" points="663.378,500.598 657.274,491.199 667.528,482.225 671.19,465.197 658.739,465.197 
		658.739,440.174 683.763,440.174 683.763,465.197 678.88,487.475 	"/>
</g>
<path display="none" d="M658.739,465.197v-25.024h25.022v25.024c0,9.194-1.629,16.62-4.883,22.276
	c-3.256,5.656-8.422,10.029-15.502,13.123l-6.104-9.398c4.639-2.035,8.057-5.025,10.254-8.974c2.196-3.947,3.418-9.624,3.662-17.027
	H658.739L658.739,465.197z"/>
</svg>
