<?xml version="1.0" encoding="utf-8"?>
<!-- Generator: Adobe Illustrator 16.0.0, SVG Export Plug-In . SVG Version: 6.00 Build 0)  -->
<!DOCTYPE svg PUBLIC "-//W3C//DTD SVG 1.1//EN" "http://www.w3.org/Graphics/SVG/1.1/DTD/svg11.dtd">
<svg version="1.1" xmlns="http://www.w3.org/2000/svg" xmlns:xlink="http://www.w3.org/1999/xlink" x="0px" y="0px" width="1280px"
	 height="800px" viewBox="0 0 1280 800" enable-background="new 0 0 1280 800" xml:space="preserve">
<g id="Calque_2">
</g>
<g id="Calque_1">
	<g>
		<g>
			
				<rect x="1023.398" y="85.527" transform="matrix(1 0.0038 -0.0038 1 0.3297 -4.1821)" fill="#FFFFFF" width="181.86" height="0.46"/>
			<path fill="#FEFEFE" d="M1031.231,53.71l4.791,0.018l6.081,23.453l-3.905-0.015l-1.422-5.748l-6.858-0.026l-1.531,5.737
				l-3.904-0.015L1031.231,53.71z M1036.164,68.43l-2.647-11.561l-0.065,0l-2.833,11.541L1036.164,68.43z"/>
			<g>
				<path fill="#FEFEFE" d="M1057.783,68.839l-0.002,0.492c-0.016,4.233-1.738,8.362-7.251,8.341
					c-5.906-0.022-7.729-3.835-7.698-12.204c0.031-8.367,1.883-12.167,7.822-12.145c6.662,0.025,7.037,4.949,7.027,7.377
					l-0.001,0.427l-3.741-0.014l0.002-0.394c0.008-2.166-0.639-4.663-3.33-4.574c-2.757-0.01-4.01,1.691-4.038,9.239
					s1.212,9.455,3.968,9.465c3.117,0.012,3.491-3.465,3.499-5.631l0.002-0.394L1057.783,68.839z"/>
				<path fill="#FEFEFE" d="M1074.415,68.901l-0.002,0.492c-0.016,4.233-1.737,8.362-7.25,8.341
					c-5.907-0.022-7.73-3.835-7.699-12.204c0.032-8.367,1.884-12.167,7.823-12.145c6.661,0.025,7.036,4.949,7.027,7.377
					l-0.002,0.427l-3.74-0.014l0.002-0.394c0.008-2.166-0.64-4.663-3.33-4.574c-2.757-0.01-4.01,1.691-4.039,9.239
					c-0.027,7.547,1.212,9.455,3.969,9.465c3.117,0.012,3.49-3.465,3.499-5.631l0.001-0.394L1074.415,68.901z"/>
				<polygon fill="#FEFEFE" points="1076.698,53.881 1089.365,53.928 1089.354,57.079 1080.428,57.045 1080.403,63.542 
					1088.804,63.574 1088.792,66.724 1080.392,66.692 1080.363,74.174 1089.552,74.209 1089.539,77.359 1076.61,77.31 				"/>
				<path fill="#FEFEFE" d="M1095.184,70.128l-0.003,0.591c-0.011,2.854,1.231,4.303,3.823,4.313
					c2.363,0.009,3.551-1.66,3.558-3.399c0.009-2.461-1.234-3.548-3.332-4.18l-2.556-0.896c-3.408-1.325-4.878-3.103-4.865-6.45
					c0.016-4.266,2.912-6.617,7.31-6.601c6.005,0.022,6.614,3.766,6.604,6.193l-0.002,0.525l-3.74-0.014l0.002-0.492
					c0.008-2.133-0.939-3.384-3.269-3.392c-1.608-0.006-3.154,0.875-3.163,3.368c-0.008,2.002,1.006,3.023,3.496,3.984l2.523,0.929
					c3.31,1.193,4.746,3.004,4.734,6.22c-0.019,4.988-3.046,7.043-7.771,7.026c-5.809-0.022-7.106-3.899-7.094-7.18l0.002-0.558
					L1095.184,70.128z"/>
				<path fill="#FEFEFE" d="M1111.815,70.19l-0.002,0.591c-0.011,2.854,1.23,4.303,3.822,4.313c2.363,0.009,3.551-1.661,3.558-3.399
					c0.009-2.461-1.234-3.548-3.332-4.18l-2.556-0.896c-3.408-1.325-4.878-3.103-4.865-6.45c0.016-4.266,2.912-6.617,7.31-6.601
					c6.005,0.023,6.614,3.766,6.605,6.194l-0.002,0.525l-3.741-0.014l0.002-0.492c0.009-2.133-0.938-3.384-3.269-3.393
					c-1.608-0.006-3.153,0.875-3.163,3.368c-0.008,2.002,1.006,3.023,3.496,3.984l2.523,0.929c3.31,1.193,4.747,3.004,4.734,6.22
					c-0.019,4.988-3.045,7.043-7.771,7.026c-5.808-0.022-7.105-3.899-7.094-7.18l0.002-0.558L1111.815,70.19z"/>
				<path fill="#FFFFFF" d="M1174.535,57.07l-3.085-0.012l-0.066,17.786l3.085,0.012c3.084,0.011,4.372-2.019,4.397-8.876
					C1178.891,59.384,1177.783,57.083,1174.535,57.07"/>
				<path fill="#FFFFFF" d="M1156.966,56.545c-2.231-0.008-4.008,1.363-4.038,9.238c-0.03,8.073,1.736,9.458,3.968,9.466
					s4.009-1.363,4.039-9.436C1160.964,57.938,1159.197,56.553,1156.966,56.545"/>
				<path fill="#FFFFFF" d="M1126.538,85.906l78.718,0.295l0.157-41.684l-78.719-0.296L1126.538,85.906z M1147.504,69.668
					c-0.017,4.233-1.738,8.361-7.251,8.34c-5.907-0.022-7.73-3.836-7.698-12.203c0.031-8.368,1.883-12.167,7.822-12.145
					c6.661,0.025,7.036,4.949,7.027,7.377l-0.002,0.426l-3.74-0.014l0.001-0.394c0.009-2.166-0.639-4.662-3.33-4.574
					c-2.756-0.01-4.009,1.691-4.037,9.239s1.211,9.455,3.968,9.465c3.117,0.012,3.491-3.465,3.499-5.631l0.002-0.394l3.74,0.014
					L1147.504,69.668z M1156.885,78.071c-5.381-0.021-7.729-3.836-7.698-12.203c0.031-8.368,2.408-12.166,7.79-12.145
					c5.382,0.02,7.729,3.835,7.698,12.203C1164.644,74.293,1162.267,78.091,1156.885,78.071 M1174.294,77.677l-6.661-0.025
					l0.088-23.43l6.661,0.025c7.351,0.027,8.251,4.821,8.226,11.746C1182.581,72.917,1181.645,77.705,1174.294,77.677
					 M1198.493,77.768l-12.929-0.048l0.088-23.43l12.667,0.048l-0.013,3.15l-8.925-0.034l-0.024,6.498l8.4,0.031l-0.012,3.15
					l-8.4-0.032l-0.028,7.482l9.188,0.034L1198.493,77.768z"/>
				<polygon fill="#FFFFFF" points="996.699,64.757 1014.978,56.675 1014.966,59.776 1000.373,66.105 1014.918,72.542 
					1014.906,75.644 996.689,67.425 				"/>
				<polygon fill="#FFFFFF" points="1228.235,68.294 1209.957,76.376 1209.969,73.275 1224.563,66.947 1210.018,60.509 
					1210.029,57.408 1228.245,65.626 				"/>
				<path fill="#FEFEFE" d="M1025.631,100.482c-0.006,1.448,0.93,2.566,2.568,2.572c1.576,0.006,2.632-1.12,2.637-2.569
					c0.006-1.48-0.788-1.993-2.061-2.443l-1.287-0.451c-1.494-0.515-2.304-1.25-2.298-2.794c0.007-1.831,1.269-2.956,3.052-2.949
					c2.102,0.008,3.036,1.205,3.028,3.099l-0.668-0.002c0.005-1.528-0.691-2.549-2.299-2.555c-1.273-0.005-2.438,0.58-2.444,2.347
					c-0.005,1.257,0.678,1.865,1.663,2.203l1.685,0.595c1.463,0.515,2.305,1.235,2.298,2.906c-0.008,2.021-1.509,3.162-3.308,3.155
					c-2.626-0.01-3.24-1.859-3.236-2.957l0.003-0.749l0.669,0.002L1025.631,100.482z"/>
				<path fill="#FEFEFE" d="M1064.515,95.438c0.006-1.528-0.801-2.916-2.473-2.922c-2.261-0.008-3.017,2.106-3.028,5.306
					c-0.012,3.057,0.601,5.351,2.894,5.359c2.196,0.008,2.731-2.568,2.734-3.459l0.669,0.002c-0.005,1.337-0.684,4.009-3.518,3.998
					c-2.467-0.009-3.462-2.194-3.448-5.871c0.014-3.566,1.025-5.886,3.668-5.876c2.658,0.01,3.175,2.352,3.171,3.466
					L1064.515,95.438z"/>
				<polygon fill="#FEFEFE" points="1092.359,92.279 1093.028,92.282 1093.01,97.264 1097.992,97.283 1098.012,92.301 
					1098.68,92.303 1098.637,103.669 1097.969,103.667 1097.99,97.888 1093.008,97.869 1092.986,103.648 1092.317,103.646 				"/>
				<path fill="#FEFEFE" d="M1133.241,98.116c-0.019,4.983-2.075,5.867-3.684,5.861c-2.181-0.008-3.672-1.479-3.655-5.888
					s1.614-5.868,3.699-5.86C1131.862,92.236,1133.258,93.707,1133.241,98.116 M1126.571,98.091
					c-0.012,3.121,0.617,5.335,2.988,5.344c2.086,0.008,3-1.708,3.014-5.322c0.011-3.072-0.665-5.335-2.974-5.344
					C1127.371,92.761,1126.583,94.971,1126.571,98.091"/>
				<path fill="#FEFEFE" d="M1167.457,98.244c-0.019,4.983-2.075,5.867-3.684,5.861c-2.18-0.008-3.671-1.479-3.654-5.888
					s1.613-5.868,3.699-5.86C1166.079,92.365,1167.474,93.835,1167.457,98.244 M1160.787,98.219
					c-0.012,3.121,0.617,5.335,2.988,5.344c2.086,0.008,3-1.708,3.014-5.322c0.012-3.072-0.665-5.335-2.974-5.344
					C1161.587,92.889,1160.799,95.099,1160.787,98.219"/>
				<polygon fill="#FEFEFE" points="1194.723,92.664 1195.391,92.666 1195.351,103.427 1200.11,103.445 1200.108,104.05 
					1194.68,104.03 				"/>
			</g>
		</g>
	</g>
	<g id="perso">
		<path fill="#FFFFFF" d="M371.007,14.194l-15.133,25.776c-17.539-10.967-29.02-24.85-34.444-41.646
			c-5.419-16.798-4.332-34.137,3.261-52.016c9.515-22.404,24.483-37.305,44.912-44.699c20.427-7.399,44.309-5.293,71.645,6.318
			c17.674,7.506,31.896,17.004,42.667,28.492c10.768,11.487,16.924,24.623,18.468,39.412c1.545,14.784-0.674,29.217-6.654,43.298
			c-7.55,17.777-18.223,30.407-32.013,37.894c-13.794,7.483-29.639,9.307-47.537,5.467l7.295-28.744
			c12.086,2.102,22.291,1.068,30.613-3.102c8.32-4.168,14.444-10.877,18.371-20.125c5.936-13.976,5.748-27.461-0.562-40.451
			c-6.31-12.99-20.306-24.088-41.989-33.295c-21.992-9.341-39.762-11.917-53.311-7.722c-13.546,4.191-23.2,13.073-28.959,26.637
			c-4.627,10.891-5.15,21.401-1.568,31.539C349.649-2.642,357.964,6.349,371.007,14.194z"/>
		<path fill="#FFFFFF" d="M370.743,70.125l25.899,10.998l-0.367,176.515l-27.591-11.718l1.698-139.381l-99.584,97.808l-27.59-11.718
			L370.743,70.125z"/>
		<path fill="#FFFFFF" d="M128.631,243.859l25.991-61.197l22.969,9.756l-14.207,33.451l242.781,103.109l14.206-33.45l22.968,9.755
			l-25.991,61.195L128.631,243.859z"/>
		<path fill="#FFFFFF" d="M170.75,319.057l31.598,13.422l-13.421,31.599l-31.598-13.419c-11.611-4.932-20.117-10.971-25.516-18.113
			c-5.393-7.146-8.145-16.014-8.255-26.615l15.142-2.668c0.083,6.951,2.025,12.871,5.832,17.762
			c3.806,4.893,10.32,9.479,19.54,13.758L170.75,319.057z M302.854,375.163l31.598,13.42l-13.421,31.6l-31.597-13.419
			L302.854,375.163z"/>
		<path fill="#FFFFFF" d="M208.982,417.538l27.902,11.85l-36.202,85.241l-27.903-11.85L208.982,417.538z"/>
		<path fill="#FFFFFF" d="M17.766,494.622l8.443-19.884c36.28,51.676,79.132,88.008,128.561,109.002
			c19.319,8.204,39.424,14.134,60.313,17.79c16.899,3.052,33.771,4.457,50.612,4.211c10.953-0.078,29.88-1.805,56.786-5.176
			l-8.444,19.884c-34.004,8.363-65.966,11.651-95.891,9.857c-25.765-1.604-50.876-7.597-75.332-17.983
			c-27.747-11.784-52.31-28.495-73.687-50.129C47.748,540.561,30.627,518.036,17.766,494.622z"/>
		<path fill="#FFFFFF" d="M55.528,590.354l80.648,137.414l140.944-31.113l-15.122,35.609l-75.373,16.384
			c-15.646,3.421-27.47,5.557-35.472,6.405c6.083,8.525,12.135,18.132,18.149,28.815l40.65,70.941l-13.813,32.523L123.34,762.712
			l-155.798,34.813l15.712-36.995L88.03,737.891c5.979-1.223,12.408-2.374,19.297-3.449c-6.085-8.529-10.209-14.524-12.374-17.992
			l-54.677-90.181L55.528,590.354z"/>
	</g>
	<g>
		<path fill="#FFFFFF" d="M593.143,25.51l37.008,14.493l-2.963,7.565l-24.672-9.662l-8.889,22.697l12.336,4.83L603,73l-12.336-4.832
			l-8.888,22.697l24.673,9.662l-2.963,7.565L566.477,93.6L593.143,25.51z"/>
		<path fill="#FFFFFF" d="M642.486,44.834l37.01,14.494l-2.963,7.565l-12.336-4.831l-23.703,60.523l-12.336-4.83l23.703-60.525
			l-12.337-4.831L642.486,44.834z"/>
		<path fill="#FFFFFF" d="M761.32,91.373l12.338,4.832l-23.703,60.523l24.672,9.662l-2.963,7.566l-37.009-14.494L761.32,91.373z"/>
		<path fill="#FFFFFF" d="M823.002,115.529l12.336,4.831l-5.926,15.132l-6.168-2.416l-2.963,7.565l-12.336-4.831l2.963-7.566
			l6.168,2.416L823.002,115.529z"/>
		<path fill="#FFFFFF" d="M866.18,132.438l24.672,9.662l-2.963,7.565l6.168,2.416l-23.702,60.524l-12.337-4.831l8.889-22.697
			l-12.336-4.831l-8.889,22.696l-12.336-4.83l23.703-60.525l6.168,2.416L866.18,132.438z M881.721,147.25l-12.336-4.83
			l-11.852,30.262l12.336,4.831L881.721,147.25z"/>
		<path fill="#FFFFFF" d="M915.523,151.764l24.672,9.662l-2.963,7.565l6.17,2.415l-2.963,7.566l-12.338-4.831l2.963-7.565
			l-12.334-4.832l-20.74,52.959l12.335,4.832l2.963-7.566l12.337,4.831l-2.963,7.565l-6.169-2.415l-2.963,7.565l-24.672-9.662
			l2.963-7.566l-6.168-2.415l20.739-52.959l6.168,2.415L915.523,151.764z"/>
		<path fill="#FFFFFF" d="M964.869,171.088l24.672,9.662l-2.963,7.566l6.17,2.416l-2.963,7.565l-12.338-4.831l2.963-7.566
			l-12.336-4.831l-8.889,22.696l18.504,7.247l-2.963,7.565l6.17,2.416l-8.889,22.697l-6.169-2.416l-2.963,7.564l-24.673-9.662
			l2.963-7.565l-6.168-2.415l2.963-7.566l12.337,4.832l-2.963,7.565l12.336,4.831l8.888-22.697l-18.504-7.246l2.963-7.566
			l-6.168-2.415l8.889-22.696l6.168,2.415L964.869,171.088z"/>
		<path fill="#FFFFFF" d="M1077.533,215.211l12.338,4.832l-20.74,52.958l12.336,4.831l20.74-52.959l12.336,4.832l-20.739,52.958
			l-6.169-2.415l-2.963,7.565l-6.168-2.415l-2.963,7.564l-12.336-4.83l2.963-7.566l-6.169-2.416l2.963-7.565l-6.168-2.415
			L1077.533,215.211z"/>
		<path fill="#FFFFFF" d="M1133.047,236.951l24.672,9.662l-2.963,7.566l6.17,2.416l-20.74,52.959l-6.169-2.416l-2.963,7.564
			l-24.673-9.662l2.963-7.565l-6.167-2.415l20.739-52.959l6.168,2.415L1133.047,236.951z M1136.252,246.933l-20.739,52.959
			l12.336,4.831l20.739-52.959L1136.252,246.933z"/>
		<path fill="#FFFFFF" d="M1176.225,253.861l12.336,4.83l-23.702,60.525l12.335,4.83l23.703-60.523l12.336,4.831l-23.702,60.524
			l-6.169-2.416l-2.963,7.566l-24.672-9.662l2.963-7.566l-6.168-2.416L1176.225,253.861z"/>
		<path fill="#FFFFFF" d="M1231.736,275.602l24.674,9.662l-2.963,7.565l6.168,2.416l-2.963,7.565l-12.336-4.831l2.963-7.565
			l-12.336-4.832l-8.889,22.697l18.504,7.246l-2.963,7.566l6.168,2.416l-8.888,22.697l-6.169-2.416l-2.963,7.564l-24.673-9.662
			l2.963-7.566l-6.168-2.414l2.963-7.566l12.337,4.832l-2.963,7.564l12.336,4.832l8.889-22.697l-18.506-7.247l2.963-7.565
			l-6.168-2.416l8.889-22.696l6.168,2.415L1231.736,275.602z"/>
		<path fill="#FFFFFF" d="M575.375,105.811l36.061,14.121l-4.331,11.058l9.015,3.53l-4.331,11.059l-18.03-7.062l4.331-11.058
			l-18.029-7.061l-12.991,33.172l27.045,10.591l-4.331,11.058l9.015,3.531l-12.991,33.172l-9.015-3.531l-4.331,11.057
			l-36.061-14.121l4.331-11.058l-9.015-3.53l4.331-11.058l18.03,7.062l-4.331,11.057l18.029,7.062l12.991-33.172l-27.045-10.592
			l4.331-11.058l-9.015-3.53l12.991-33.172l9.015,3.53L575.375,105.811z"/>
		<path fill="#FFFFFF" d="M662.469,139.918l36.061,14.123l-4.332,11.057l9.016,3.53L672.9,246.029l-9.016-3.53l-4.33,11.058
			l-36.059-14.123l4.331-11.057l-9.016-3.531l30.312-77.4l9.016,3.53L662.469,139.918z M667.152,154.506l-30.312,77.401
			l18.031,7.062l30.313-77.402L667.152,154.506z"/>
		<path fill="#FFFFFF" d="M740.547,170.496l18.03,7.061l-34.644,88.459l18.031,7.061l34.643-88.458l18.029,7.062l-34.643,88.458
			l-9.016-3.53l-4.33,11.057l-36.059-14.121l4.33-11.058l-9.016-3.53L740.547,170.496z"/>
		<path fill="#FFFFFF" d="M827.641,204.604l18.03,7.062l-17.321,44.229l18.029,7.061l17.322-44.229l18.029,7.061l-38.974,99.515
			l-18.029-7.061l17.321-44.228l-18.03-7.062l-17.321,44.229l-18.03-7.062L827.641,204.604z"/>
		<path fill="#FFFFFF" d="M923.748,242.242l36.061,14.123l-4.33,11.057l9.014,3.531l-34.643,88.458l-18.03-7.063l12.991-33.172
			l-18.029-7.06l-12.991,33.171l-18.03-7.061l34.643-88.458l9.016,3.53L923.748,242.242z M946.463,263.892l-18.029-7.062
			l-17.322,44.23l18.029,7.061L946.463,263.892z"/>
		<path fill="#FFFFFF" d="M1019.856,279.881l18.03,7.062l-38.974,99.516l-18.03-7.063L1019.856,279.881z"/>
		<path fill="#FFFFFF" d="M1088.92,306.929l54.09,21.182l-4.33,11.059l-18.029-7.063l-34.644,88.459l-18.03-7.061l34.643-88.459
			l-18.029-7.061L1088.92,306.929z"/>
		<path fill="#FFFFFF" d="M1176.014,341.037l54.09,21.184l-4.33,11.057l-36.061-14.121l-12.99,33.172l18.029,7.061l-4.331,11.057
			l-18.029-7.061l-12.991,33.172l36.061,14.123l-4.331,11.057l-54.09-21.184L1176.014,341.037z"/>
		<path fill="#FFFFFF" d="M516.848,224.516l15.183,5.947l-29.173,74.49l15.183,5.946l29.173-74.491l15.184,5.946l-29.173,74.491
			l-7.592-2.972l-3.646,9.31l-30.366-11.891l3.646-9.312l-7.591-2.973L516.848,224.516z"/>
		<path fill="#FFFFFF" d="M589.727,253.058l15.183,5.946l-10.94,27.935l7.591,2.973l-3.647,9.312l7.592,2.973l14.587-37.246
			l15.184,5.947l-32.819,83.802l-15.184-5.947l10.939-27.934l-7.592-2.973l3.646-9.312l-7.591-2.973l-14.586,37.246l-15.183-5.945
			L589.727,253.058z"/>
		<path fill="#FFFFFF" d="M662.605,281.599l45.549,17.839l-3.646,9.311l-30.367-11.892l-10.939,27.934l15.184,5.945l-3.646,9.313
			l-15.184-5.947l-10.939,27.936l30.365,11.891l-3.646,9.313l-45.548-17.838L662.605,281.599z"/>
		<path fill="#FFFFFF" d="M853.964,356.541l30.366,11.893l-3.646,9.311l7.592,2.973l-29.173,74.493l-15.184-5.945l10.939-27.936
			l-15.183-5.945l-10.939,27.934l-15.183-5.945l29.173-74.493l7.591,2.973L853.964,356.541z M873.092,374.771l-15.183-5.945
			l-14.587,37.245l15.183,5.947L873.092,374.771z"/>
		<path fill="#FFFFFF" d="M919.251,382.109l15.183,5.945l-10.939,27.936l7.592,2.973l-3.647,9.311l7.592,2.973l14.587-37.245
			l15.183,5.945L931.98,483.75l-15.183-5.945l10.939-27.936l-7.592-2.973l3.646-9.311l-7.592-2.975l-14.586,37.246l-15.183-5.945
			L919.251,382.109z"/>
		<path fill="#FFFFFF" d="M992.13,410.65l15.184,5.945l-10.94,27.936l7.592,2.973l-3.647,9.311l7.592,2.975l14.587-37.246
			l15.183,5.945l-32.819,83.803l-15.183-5.945l10.939-27.934l-7.592-2.975l3.646-9.311l-7.591-2.973l-14.586,37.244l-15.184-5.945
			L992.13,410.65z"/>
		<path fill="#FFFFFF" d="M1065.009,439.191l45.549,17.838l-3.646,9.313l-30.365-11.893l-10.94,27.934l15.183,5.947l-3.646,9.311
			l-15.183-5.945l-10.939,27.934l30.365,11.893l-3.646,9.311l-45.549-17.838L1065.009,439.191z M1098.723,420.178l15.183,5.945
			l-3.646,9.311l-7.591-2.973l-3.646,9.313l-15.183-5.947l3.646-9.311l7.591,2.973L1098.723,420.178z"/>
		<path fill="#FFFFFF" d="M1137.888,467.732l45.548,17.838l-3.646,9.313l-30.365-11.893l-10.94,27.934l15.183,5.947l-3.646,9.311
			l-15.183-5.945l-10.939,27.934l30.365,11.893l-3.646,9.311l-45.548-17.838L1137.888,467.732z"/>
		<path fill="#FFFFFF" d="M479.962,321.494l17.081,6.689l-16.409,41.9l17.081,6.689l16.409-41.9l17.081,6.689l-36.922,94.278
			l-17.081-6.689l16.41-41.901l-17.081-6.691l-16.41,41.903l-17.081-6.689L479.962,321.494z"/>
		<path fill="#FFFFFF" d="M577.323,359.623l34.162,13.379l-4.103,10.475l8.541,3.346l-32.819,83.803l-17.081-6.689l12.308-31.426
			l-17.081-6.689l-12.308,31.426l-17.081-6.689l32.819-83.803l8.54,3.344L577.323,359.623z M598.842,380.132l-17.081-6.689
			l-16.409,41.901l17.081,6.689L598.842,380.132z"/>
		<path fill="#FFFFFF" d="M657.604,391.062l17.08,6.689l-32.82,83.803l17.082,6.689l32.82-83.803l17.08,6.689l-32.82,83.803
			l-8.539-3.344l-4.104,10.475l-34.162-13.379l4.103-10.475l-8.54-3.346L657.604,391.062z"/>
		<path fill="#FFFFFF" d="M746.423,425.848l51.242,20.068l-4.103,10.475l-17.08-6.689l-32.819,83.803l-17.081-6.689l32.818-83.803
			l-17.08-6.689L746.423,425.848z"/>
		<path fill="#FFFFFF" d="M835.244,460.633l51.242,20.068l-4.103,10.475l-34.162-13.379l-12.307,31.426l17.082,6.689l-4.103,10.475
			l-17.082-6.689l-12.308,31.428l34.162,13.379l-4.103,10.475l-51.242-20.068L835.244,460.633z"/>
		<path fill="#FFFFFF" d="M1004.586,526.951l51.243,20.068l-4.103,10.475l-34.162-13.379l-12.307,31.428l17.081,6.689l-4.103,10.475
			l-17.081-6.689l-12.308,31.426l34.162,13.379l-4.103,10.475l-51.243-20.068L1004.586,526.951z"/>
		<path fill="#FFFFFF" d="M1093.406,561.736l17.08,6.689l-12.307,31.426l8.541,3.344l-4.102,10.477l8.54,3.344l16.409-41.9
			l17.081,6.689l-36.922,94.277l-17.081-6.689l12.308-31.426l-8.54-3.344l4.103-10.477l-8.542-3.346l-16.41,41.902l-17.08-6.689
			L1093.406,561.736z"/>
		<path fill="#FFFFFF" d="M446.568,431.92l34.162,13.379l-4.103,10.475l8.541,3.346l-4.103,10.475l-17.081-6.689l4.103-10.475
			l-17.082-6.689l-28.717,73.326l17.082,6.691l4.103-10.477l17.081,6.689l-4.103,10.475l-8.541-3.344l-4.102,10.475l-34.162-13.379
			l4.102-10.475l-8.54-3.344l28.717-73.328l8.54,3.344L446.568,431.92z"/>
		<path fill="#FFFFFF" d="M534.203,466.24l34.162,13.379l-4.103,10.475l8.54,3.346l-28.717,73.326l-8.54-3.344l-4.102,10.475
			l-34.162-13.379l4.102-10.475l-8.54-3.346l28.717-73.326l8.54,3.344L534.203,466.24z M538.64,480.061l-28.717,73.326l17.082,6.689
			l28.717-73.326L538.64,480.061z"/>
		<path fill="#FFFFFF" d="M613.296,497.215l17.081,6.689l-32.82,83.803l17.081,6.689l32.82-83.803l17.08,6.689l-32.82,83.803
			l-8.539-3.344l-4.103,10.475l-34.162-13.379l4.102-10.475l-8.541-3.346L613.296,497.215z"/>
		<path fill="#FFFFFF" d="M700.932,531.535l17.08,6.689l-32.82,83.803l34.162,13.379l-4.102,10.475l-51.242-20.066L700.932,531.535z
			"/>
		<path fill="#FFFFFF" d="M788.565,565.855l51.242,20.068l-4.103,10.477l-34.162-13.379l-12.308,31.426l17.082,6.689l-4.103,10.475
			l-17.082-6.689l-12.307,31.426l34.162,13.379l-4.103,10.475l-51.242-20.068L788.565,565.855z"/>
		<path fill="#FFFFFF" d="M876.2,600.176l17.08,6.689l-32.819,83.803l17.082,6.689l32.819-83.803l17.08,6.689l-32.819,83.803
			l-8.541-3.344l-4.102,10.475l-34.162-13.379l4.102-10.475l-8.539-3.346L876.2,600.176z"/>
		<path fill="#FFFFFF" d="M963.834,634.496l42.703,16.723l-4.103,10.477l8.54,3.344l-12.308,31.426l-8.54-3.344l-4.103,10.475
			l-8.541-3.344l-4.103,10.475l8.541,3.346l-4.102,10.475l8.539,3.344l-8.204,20.951l-17.081-6.689l8.205-20.951l-8.541-3.344
			l4.104-10.475l-8.541-3.346l-12.308,31.426l-17.081-6.689L963.834,634.496z M981.586,689.775l12.308-31.426l-17.081-6.689
			l-12.308,31.426L981.586,689.775z"/>
		<path fill="#FFFFFF" d="M1060.009,672.16l34.162,13.379l-4.103,10.477l8.541,3.344l-4.103,10.477l-17.081-6.689l4.103-10.477
			l-17.081-6.689l-12.308,31.426l25.621,10.035l-4.103,10.475l8.541,3.346l-12.307,31.426l-8.541-3.346l-4.103,10.477
			l-34.162-13.379l4.103-10.477l-8.541-3.344l4.104-10.477l17.08,6.689l-4.102,10.477l17.08,6.689l12.308-31.426l-25.622-10.035
			l4.103-10.475l-8.54-3.346l12.308-31.426l8.54,3.346L1060.009,672.16z"/>
	</g>
	<g>
		<g id="post-facebook_1_">
			<path fill="#FFFFFF" d="M444.611,586.826l-53.774-20.641c-3.698-1.422-7.884,0.445-9.304,4.141L360.892,624.1
				c-1.419,3.697,0.444,7.885,4.143,9.303l53.772,20.641c3.696,1.418,7.883-0.443,9.304-4.141l20.64-53.775
				C450.173,592.432,448.307,588.244,444.611,586.826z M438.67,592.26l-3.87,10.08l-6.723-2.582
				c-2.018-0.771-3.876,0.053-4.65,2.072l-2.582,6.723l10.085,3.871l-3.87,10.082l-10.085-3.871l-9.03,23.525l-10.083-3.871
				l9.03-23.523l-6.723-2.58l3.872-10.084l6.721,2.58l3.227-8.402c2.451-6.387,9.892-9.699,16.277-7.248L438.67,592.26z"/>
		</g>
	</g>
	<g>
		<g id="post-twitter_1_">
			<path fill="#FFFFFF" d="M566.879,634.969l-53.774-20.645c-3.697-1.416-7.882,0.445-9.302,4.143l-20.641,53.773
				c-1.421,3.699,0.443,7.883,4.14,9.303l53.773,20.643c3.698,1.416,7.886-0.445,9.302-4.141l20.644-53.773
				C572.44,640.572,570.577,636.389,566.879,634.969z M549.729,656.533c-6.267,15.332-20.145,22.346-35.188,17.342
				c-6.18-1.986-9.771-5.678-12.905-9.582c4.11,2.35,10.47,2.861,14.528,1.334c-4.243-2.014-6.025-5.396-5.951-9.607
				c1.215,0.852,2.69,1.029,3.697,1.416c-3.518-2.891-5.304-6.275-3.576-11.781c0.752,1.057,1.964,1.912,3.31,2.428
				c-2.378-2.844-1.942-10.002,1.955-13.131c2.566,6.379,6.393,12.477,14.876,16.502c1.258-10.313,15.965-10.449,18.556-2.131
				c2.48,0.568,4.549,0.205,6.487,0.18c-1.574,2.096-3.438,2.92-5.634,3.621c1.812,0.307,3.621,0.615,5.223,0.463
				C554.123,655.137,551.929,655.836,549.729,656.533z"/>
		</g>
	</g>
</g>
</svg>
