<?xml version="1.0" encoding="utf-8"?>
<!-- Generator: Adobe Illustrator 16.0.0, SVG Export Plug-In . SVG Version: 6.00 Build 0)  -->
<!DOCTYPE svg PUBLIC "-//W3C//DTD SVG 1.1//EN" "http://www.w3.org/Graphics/SVG/1.1/DTD/svg11.dtd">
<svg version="1.1" xmlns="http://www.w3.org/2000/svg" xmlns:xlink="http://www.w3.org/1999/xlink" x="0px" y="0px" width="1280px"
	 height="800px" viewBox="0 0 1280 800" enable-background="new 0 0 1280 800" xml:space="preserve">
<g id="Calque_2">
</g>
<g id="Calque_1">
	<g>
		<g id="post-facebook_1_">
			<path fill="#FFFFFF" d="M444.611,586.826l-53.774-20.641c-3.698-1.422-7.884,0.445-9.304,4.141L360.892,624.1
				c-1.419,3.697,0.444,7.885,4.143,9.303l53.772,20.641c3.696,1.418,7.883-0.443,9.304-4.141l20.64-53.775
				C450.173,592.432,448.307,588.244,444.611,586.826z M438.67,592.26l-3.87,10.08l-6.723-2.582
				c-2.018-0.771-3.876,0.053-4.65,2.072l-2.582,6.723l10.085,3.871l-3.87,10.082l-10.085-3.871l-9.03,23.525l-10.083-3.871
				l9.03-23.523l-6.723-2.58l3.872-10.084l6.721,2.58l3.227-8.402c2.451-6.387,9.892-9.699,16.277-7.248L438.67,592.26z"/>
		</g>
	</g>
</g>
</svg>
