<?xml version="1.0" encoding="utf-8"?>
<!-- Generator: Adobe Illustrator 16.0.0, SVG Export Plug-In . SVG Version: 6.00 Build 0)  -->
<!DOCTYPE svg PUBLIC "-//W3C//DTD SVG 1.1//EN" "http://www.w3.org/Graphics/SVG/1.1/DTD/svg11.dtd">
<svg version="1.1" id="santaBack" xmlns="http://www.w3.org/2000/svg" xmlns:xlink="http://www.w3.org/1999/xlink" x="0px" y="0px"
	 width="1280px" height="800px" viewBox="0 0 1280 800" enable-background="new 0 0 1280 800" xml:space="preserve">
<g id="pomBack">
	
		<image overflow="visible" opacity="0.75" width="111" height="107" xlink:href="9C9C568C.png"  transform="matrix(1 0 0 1 317.5 268.5)">
	</image>
</g>
<g id="hatBack">
	
		<image overflow="visible" opacity="0.75" width="149" height="153" xlink:href="9C9C568D.png"  transform="matrix(1 0 0 1 420.5 301.5)">
	</image>
</g>
<g id="furBack">
	
		<image overflow="visible" opacity="0.75" width="79" height="260" xlink:href="9C9C568B.png"  transform="matrix(1 0 0 1 557.5 271.5)">
	</image>
</g>
<g id="eyesBack">
	
		<image overflow="visible" opacity="0.75" width="56" height="160" xlink:href="9C9C5694.png"  transform="matrix(1 0 0 1 644.5 321.5)">
	</image>
</g>
<g id="mustacheBack">
	
		<image overflow="visible" opacity="0.75" width="102" height="266" xlink:href="9C9C5697.png"  transform="matrix(1 0 0 1 698.5 268.5)">
	</image>
</g>
<g id="smileBack">
	
		<image overflow="visible" opacity="0.75" width="90" height="266" xlink:href="9C9C5695.png"  transform="matrix(1 0 0 1 790.5 268.5)">
	</image>
</g>
<g id="beardBack">
	
		<image overflow="visible" opacity="0.75" width="102" height="266" xlink:href="9C9C569B.png"  transform="matrix(1 0 0 1 863.5 268.5)">
	</image>
</g>
</svg>
