<?xml version="1.0" encoding="utf-8"?>
<!-- Generator: Adobe Illustrator 16.0.0, SVG Export Plug-In . SVG Version: 6.00 Build 0)  -->
<!DOCTYPE svg PUBLIC "-//W3C//DTD SVG 1.1//EN" "http://www.w3.org/Graphics/SVG/1.1/DTD/svg11.dtd">
<svg version="1.1" id="Calque_1" xmlns="http://www.w3.org/2000/svg" xmlns:xlink="http://www.w3.org/1999/xlink" x="0px" y="0px"
	 width="300px" height="75.5px" viewBox="982 724.5 300 75.5" enable-background="new 982 724.5 300 75.5" xml:space="preserve">
<g>
	<path fill="#FFFFFF" d="M1026.813,754.25h2.063v2.063h-2.063V754.25z M1026.813,758.375h2.063v2.063h-2.063V758.375z
		 M1030.938,752.188H1033v4.125h2.063v2.063H1033v4.125h-2.063v-4.125h-2.063v-2.063h2.063V752.188z M1035.063,754.25h2.063v2.063
		h-2.063V754.25z M1035.063,758.375h2.063v2.063h-2.063V758.375z"/>
	<path fill="#FFFFFF" d="M1049.499,766.625h2.063v2.063h-2.063V766.625z M1051.563,768.688h6.188v2.063h-6.188V768.688z
		 M1057.749,752.188h2.063v16.5h-2.063V752.188z"/>
	<path fill="#FFFFFF" d="M1063.938,758.375H1066v10.313h-2.063V758.375z M1065.999,756.313h6.188v2.063h-6.188V756.313z
		 M1065.999,768.688h6.188v2.063h-6.188V768.688z M1072.188,758.375h2.062v10.313h-2.063v-10.313H1072.188z"/>
	<path fill="#FFFFFF" d="M1078.374,756.313h2.063v10.313h-2.063V756.313z M1078.374,770.75h2.063v2.063h-2.063V770.75z
		 M1086.624,756.313h2.063v16.5h-2.063v-4.125h-6.188v-2.063h6.188V756.313z M1080.438,772.813h6.188v2.063h-6.188V772.813z"/>
	<path fill="#FFFFFF" d="M1092.813,758.375h2.063v4.125h6.188v-4.125h2.063v6.188h-8.25v4.125h-2.063V758.375L1092.813,758.375z
		 M1094.874,756.313h6.188v2.063h-6.188V756.313z M1094.874,768.688h6.188v2.063h-6.188V768.688z M1101.063,766.625h2.063v2.063
		h-2.063V766.625z"/>
	<path fill="#FFFFFF" d="M1107.249,756.313h2.063v12.375h-2.063V756.313z M1109.313,768.688h6.188v2.063h-6.188V768.688z
		 M1115.499,756.313h2.063v12.375h-2.063V756.313z"/>
	<path fill="#FFFFFF" d="M1121.688,758.375h2.063v4.125h-2.063V758.375z M1121.688,766.625h2.063v2.063h-2.063V766.625z
		 M1123.749,756.313h6.188v2.063h-6.188V756.313z M1123.749,762.5h6.188v2.063h-6.188V762.5z M1123.749,768.688h6.188v2.063h-6.188
		V768.688z M1129.938,758.375H1132v2.063h-2.063V758.375z M1129.938,764.563H1132v4.125h-2.063V764.563z"/>
	<path fill="#FFFFFF" d="M1136.124,758.375h2.063v4.125h6.188v-4.125h2.063v6.188h-8.25v4.125h-2.063L1136.124,758.375
		L1136.124,758.375z M1138.188,756.313h6.188v2.063h-6.188V756.313z M1138.188,768.688h6.188v2.063h-6.188V768.688z
		 M1144.374,766.625h2.063v2.063h-2.063V766.625z"/>
	<path fill="#FFFFFF" d="M1150.563,758.375h2.063v4.125h-2.063V758.375z M1150.563,766.625h2.063v2.063h-2.063V766.625z
		 M1152.624,756.313h6.188v2.063h-6.188V756.313z M1152.624,762.5h6.188v2.063h-6.188V762.5z M1152.624,768.688h6.188v2.063h-6.188
		V768.688z M1158.813,758.375h2.063v2.063h-2.063V758.375z M1158.813,764.563h2.063v4.125h-2.063V764.563z"/>
	<path fill="#FFFFFF" d="M1175.313,754.25h2.063v4.125h4.125v2.063h-4.125v10.313h-2.063v-10.313h-2.063v-2.063h2.063V754.25z
		 M1177.374,752.188h6.188v2.063h-6.188V752.188z"/>
	<path fill="#FFFFFF" d="M1185.624,758.375h2.063v4.125h6.188v-4.125h2.063v6.188h-8.25v4.125h-2.063L1185.624,758.375
		L1185.624,758.375z M1187.688,752.188h2.063v2.063h-2.063V752.188z M1187.688,756.313h6.188v2.063h-6.188V756.313z
		 M1187.688,768.688h6.188v2.063h-6.188V768.688z M1189.749,750.125h2.063v2.063h-2.063V750.125z M1191.813,752.188h2.063v2.063
		h-2.063V752.188z M1193.874,766.625h2.063v2.063h-2.063V766.625z"/>
	<path fill="#FFFFFF" d="M1202.124,754.25h2.063v2.063h4.125v2.063h-4.125v10.313h-2.063v-10.313h-2.063v-2.063h2.063V754.25z
		 M1204.188,768.688h6.188v2.063h-6.188V768.688z"/>
	<path fill="#FFFFFF" d="M1212.438,758.375h2.063v4.125h6.188v-4.125h2.063v6.188h-8.25v4.125h-2.063V758.375L1212.438,758.375z
		 M1214.499,756.313h6.188v2.063h-6.188V756.313z M1214.499,768.688h6.188v2.063h-6.188V768.688z M1220.688,766.625h2.063v2.063
		h-2.063V766.625z"/>
	<path fill="#FFFFFF" d="M1226.874,758.375h2.063v4.125h-2.063V758.375z M1226.874,766.625h2.063v2.063h-2.063V766.625z
		 M1228.938,756.313h6.188v2.063h-6.188V756.313z M1228.938,762.5h6.188v2.063h-6.188V762.5z M1228.938,768.688h6.188v2.063h-6.188
		V768.688z M1235.124,758.375h2.063v2.063h-2.063V758.375z M1235.124,764.563h2.063v4.125h-2.063V764.563z"/>
</g>
</svg>
