<?xml version="1.0" encoding="utf-8"?>
<!-- Generator: Adobe Illustrator 16.0.0, SVG Export Plug-In . SVG Version: 6.00 Build 0)  -->
<!DOCTYPE svg PUBLIC "-//W3C//DTD SVG 1.1//EN" "http://www.w3.org/Graphics/SVG/1.1/DTD/svg11.dtd">
<svg version="1.1" xmlns="http://www.w3.org/2000/svg" xmlns:xlink="http://www.w3.org/1999/xlink" x="0px" y="0px" width="1280px"
	 height="800px" viewBox="0 0 1280 800" enable-background="new 0 0 1280 800" xml:space="preserve">
<g id="Calque_2">
</g>
<g id="Calque_1">
	<g>
		<g id="post-twitter_1_">
			<path fill="#FFFFFF" d="M566.879,634.969l-53.774-20.645c-3.697-1.416-7.882,0.445-9.302,4.143l-20.641,53.773
				c-1.421,3.699,0.443,7.883,4.14,9.303l53.773,20.643c3.698,1.416,7.886-0.445,9.302-4.141l20.644-53.773
				C572.44,640.572,570.577,636.389,566.879,634.969z M549.729,656.533c-6.267,15.332-20.145,22.346-35.188,17.342
				c-6.18-1.986-9.771-5.678-12.905-9.582c4.11,2.35,10.47,2.861,14.528,1.334c-4.243-2.014-6.025-5.396-5.951-9.607
				c1.215,0.852,2.69,1.029,3.697,1.416c-3.518-2.891-5.304-6.275-3.576-11.781c0.752,1.057,1.964,1.912,3.31,2.428
				c-2.378-2.844-1.942-10.002,1.955-13.131c2.566,6.379,6.393,12.477,14.876,16.502c1.258-10.313,15.965-10.449,18.556-2.131
				c2.48,0.568,4.549,0.205,6.487,0.18c-1.574,2.096-3.438,2.92-5.634,3.621c1.812,0.307,3.621,0.615,5.223,0.463
				C554.123,655.137,551.929,655.836,549.729,656.533z"/>
		</g>
	</g>
</g>
</svg>
