<?xml version="1.0" encoding="utf-8"?>
<!-- Generator: Adobe Illustrator 16.0.0, SVG Export Plug-In . SVG Version: 6.00 Build 0)  -->
<!DOCTYPE svg PUBLIC "-//W3C//DTD SVG 1.1//EN" "http://www.w3.org/Graphics/SVG/1.1/DTD/svg11.dtd">
<svg version="1.1" id="voeux" xmlns="http://www.w3.org/2000/svg" xmlns:xlink="http://www.w3.org/1999/xlink" x="0px" y="0px"
	 width="1280px" height="800px" viewBox="0 0 1280 800" enable-background="new 0 0 1280 800" xml:space="preserve">
<g id="textBack" opacity="0.2">
	<path id="astVoeux1" d="M93.769,357.158h10.71v10.71h-10.71V357.158z M93.769,378.578l10.71,0.001v10.71h-10.71V378.578z
		 M115.189,346.447h10.71v21.421h10.71l0,10.711h-10.711l0,21.421l-10.709-0.001v-21.42h-10.71v-10.711h10.71V346.447z
		 M136.61,357.158h10.71v10.71h-10.71L136.61,357.158z M136.61,378.579l10.709,0.001l0,10.709h-10.71V378.579z"/>
	<path id="jVoeux1" d="M211.583,421.421h10.71l0,10.71l-10.71-0.001V421.421z M222.293,432.131h32.131l0,10.71l-32.131,0.001
		L222.293,432.131z M254.425,346.448l10.71-0.001v85.684h-10.711L254.425,346.448z"/>
	<path id="oVoeux1" d="M286.556,378.579h10.71l0,53.552h-10.71V378.579z M297.267,367.868h32.131v10.71l-32.131,0.001
		L297.267,367.868z M297.267,432.131l32.131-0.001v10.712h-32.131V432.131z M329.397,378.578l10.71,0.001l0,53.553l-10.71-0.002
		L329.397,378.578z"/>
	<path id="yVoeux1" d="M361.529,367.867l10.71,0.001l0,53.553h-10.711L361.529,367.867z M361.529,442.842h10.71v10.71h-10.71
		V442.842z M404.371,367.868h10.71v85.684h-10.71v-21.421H372.24v-10.71h32.131V367.868z M372.239,453.552h32.131v10.711h-32.131
		V453.552z"/>
	<path id="eVoeux1_1_" d="M436.502,378.579h10.711L447.212,400l32.132,0.001v-21.422h10.71l0,32.131h-42.841v21.42l-10.711,0.001
		L436.502,378.579z M447.212,367.868l32.132-0.001l0,10.712h-32.131L447.212,367.868z M447.212,432.13l32.131,0.001v10.711h-32.131
		V432.13z M479.344,421.421l10.71-0.001v10.711h-10.71V421.421z"/>
	<path id="uVoeux1" d="M511.474,367.868h10.711v64.263h-10.711V367.868z M522.186,432.131h32.131v10.711h-32.131V432.131z
		 M554.316,367.868h10.711v64.263h-10.711V367.868z"/>
	<path id="sVoeux1_1_" d="M586.448,378.579h10.71v21.422L586.448,400L586.448,378.579z M586.448,421.42l10.71,0.001v10.71h-10.71
		V421.42z M597.158,367.867l32.131,0.002l0,10.71h-32.131V367.867z M597.158,400.001L629.29,400v10.71h-32.131V400.001z
		 M597.158,432.131h32.131l0,10.711h-32.132L597.158,432.131z M629.29,378.579H640l0,10.71l-10.711,0.001V378.579z M629.29,410.71
		l10.71-0.001l0,21.422h-10.71L629.29,410.71z"/>
	<path id="eVoeux2" d="M661.421,378.578l10.71,0.001V400l32.132-0.001v-21.42h10.71v32.131l-42.842,0.001v21.42l-10.71-0.001
		V378.578z M672.131,367.868h32.132v10.711h-32.132V367.868z M672.131,432.131h32.132v10.71l-32.132,0.001V432.131z
		 M704.263,421.421h10.709l0.001,10.71h-10.71V421.421z"/>
	<path id="sVoeux2" d="M736.394,378.579h10.711V400h-10.711V378.579z M736.394,421.421h10.711v10.71h-10.711V421.421z
		 M747.104,367.868h32.131v10.71l-32.131,0.001V367.868z M747.104,400h32.131l0.001,10.71h-32.132V400z M747.104,432.131h32.131
		v10.711h-32.131V432.131z M779.235,378.578l10.71,0.001v10.71h-10.71V378.578z M779.236,410.71h10.709l-0.001,21.421h-10.709
		L779.236,410.71z"/>
	<path id="fVoeux1" d="M864.919,357.159l10.71-0.001v21.422h21.421v10.71h-21.42l-0.001,53.553h-10.71v-53.553h-10.71l0.001-10.71
		h10.709V357.159z M875.629,346.447l32.132,0v10.711l-32.132-0.001V346.447z"/>
	<path id="eVoeux3" d="M918.471,378.579h10.712L929.182,400h32.132l-0.001-21.421l10.711-0.001v32.132h-42.842v21.421h-10.711
		V378.579z M929.182,346.447l10.71,0.001v10.71h-10.71V346.447z M929.182,367.867l32.131,0.002v10.71h-32.13L929.182,367.867z
		 M929.182,432.131h32.131v10.711h-32.131V432.131z M939.892,335.737h10.71v10.709l-10.71,0.001V335.737z M950.602,346.447l10.711,0
		v10.711h-10.711V346.447z M961.313,421.421h10.711v10.709l-10.711,0.001V421.421z"/>
	<path id="tVoeux1" d="M1004.154,357.158l10.711,0v10.71h21.42v10.711h-21.42l0.001,53.552l-10.712,0.001V378.58l-10.711-0.001
		v-10.711h10.711V357.158z M1014.866,432.131h32.13l-0.001,10.711l-32.13-0.001L1014.866,432.131z"/>
	<path id="eVoeux4" d="M1057.706,378.579h10.711V400h32.131v-21.421l10.711-0.001v32.132l-42.842-0.001v21.422h-10.711V378.579z
		 M1068.417,367.868h32.131v10.711h-32.131V367.868z M1068.417,432.131h32.131v10.711l-32.131,0.001V432.131z M1100.548,421.421
		l10.711-0.001v10.711h-10.711V421.421z"/>
	<path id="sVoeux3" d="M1132.679,378.579h10.711V400h-10.71L1132.679,378.579z M1132.68,421.42l10.709,0.001l0.001,10.71h-10.71
		V421.42z M1143.39,367.868h32.133l-0.001,10.711h-32.132V367.868z M1143.39,400h32.132v10.71h-32.132V400z M1143.39,432.131h32.132
		l0.001,10.711h-32.133V432.131z M1175.521,378.579h10.71v10.709l-10.71,0.001V378.579z M1175.521,410.71h10.71v21.421h-10.71
		V410.71z"/>
</g>
<g id="textFront_1_">
	<path id="astVoeux1_1_" fill="#FFFFFF" d="M93.769,357.158h10.71v10.71h-10.71V357.158z M93.769,378.578l10.71,0.001v10.71h-10.71
		V378.578z M115.189,346.447h10.71v21.421h10.71l0,10.711h-10.711l0,21.421l-10.709-0.001v-21.42h-10.71v-10.711h10.71V346.447z
		 M136.61,357.158h10.71v10.71h-10.71L136.61,357.158z M136.61,378.579l10.709,0.001l0,10.709h-10.71V378.579z"/>
	<path id="jVoeux1_1_" fill="#FFFFFF" d="M211.583,421.421h10.71l0,10.71l-10.71-0.001V421.421z M222.293,432.131h32.131l0,10.71
		l-32.131,0.001L222.293,432.131z M254.425,346.448l10.71-0.001v85.684h-10.711L254.425,346.448z"/>
	<path id="oVoeux1_1_" fill="#FFFFFF" d="M286.556,378.579h10.71l0,53.552h-10.71V378.579z M297.267,367.868h32.131v10.71
		l-32.131,0.001L297.267,367.868z M297.267,432.131l32.131-0.001v10.712h-32.131V432.131z M329.397,378.578l10.71,0.001l0,53.553
		l-10.71-0.002L329.397,378.578z"/>
	<path id="yVoeux1_1_" fill="#FFFFFF" d="M361.529,367.867l10.71,0.001l0,53.553h-10.711L361.529,367.867z M361.529,442.842h10.71
		v10.71h-10.71V442.842z M404.371,367.868h10.71v85.684h-10.71v-21.421H372.24v-10.71h32.131V367.868z M372.239,453.552h32.131
		v10.711h-32.131V453.552z"/>
	<path id="eVoeux1_2_" fill="#FFFFFF" d="M436.502,378.579h10.711L447.212,400l32.132,0.001v-21.422h10.71l0,32.131h-42.841v21.42
		l-10.711,0.001L436.502,378.579z M447.212,367.868l32.132-0.001l0,10.712h-32.131L447.212,367.868z M447.212,432.13l32.131,0.001
		v10.711h-32.131V432.13z M479.344,421.421l10.71-0.001v10.711h-10.71V421.421z"/>
	<path id="uVoeux1_1_" fill="#FFFFFF" d="M511.474,367.868h10.711v64.263h-10.711V367.868z M522.186,432.131h32.131v10.711h-32.131
		V432.131z M554.316,367.868h10.711v64.263h-10.711V367.868z"/>
	<path id="sVoeux1_2_" fill="#FFFFFF" d="M586.448,378.579h10.71v21.422L586.448,400L586.448,378.579z M586.448,421.42l10.71,0.001
		v10.71h-10.71V421.42z M597.158,367.867l32.131,0.002l0,10.71h-32.131V367.867z M597.158,400.001L629.29,400v10.71h-32.131V400.001
		z M597.158,432.131h32.131l0,10.711h-32.132L597.158,432.131z M629.29,378.579H640l0,10.71l-10.711,0.001V378.579z M629.29,410.71
		l10.71-0.001l0,21.422h-10.71L629.29,410.71z"/>
	<path id="eVoeux2_1_" fill="#FFFFFF" d="M661.421,378.578l10.71,0.001V400l32.132-0.001v-21.42h10.71v32.131l-42.842,0.001v21.42
		l-10.71-0.001V378.578z M672.131,367.868h32.132v10.711h-32.132V367.868z M672.131,432.131h32.132v10.71l-32.132,0.001V432.131z
		 M704.263,421.421h10.709l0.001,10.71h-10.71V421.421z"/>
	<path id="sVoeux2_1_" fill="#FFFFFF" d="M736.394,378.579h10.711V400h-10.711V378.579z M736.394,421.421h10.711v10.71h-10.711
		V421.421z M747.104,367.868h32.131v10.71l-32.131,0.001V367.868z M747.104,400h32.131l0.001,10.71h-32.132V400z M747.104,432.131
		h32.131v10.711h-32.131V432.131z M779.235,378.578l10.71,0.001v10.71h-10.71V378.578z M779.236,410.71h10.709l-0.001,21.421
		h-10.709L779.236,410.71z"/>
	<path id="fVoeux1_1_" fill="#FFFFFF" d="M864.919,357.159l10.71-0.001v21.422h21.421v10.71h-21.42l-0.001,53.553h-10.71v-53.553
		h-10.71l0.001-10.71h10.709V357.159z M875.629,346.447l32.132,0v10.711l-32.132-0.001V346.447z"/>
	<path id="eVoeux3_1_" fill="#FFFFFF" d="M918.471,378.579h10.712L929.182,400h32.132l-0.001-21.421l10.711-0.001v32.132h-42.842
		v21.421h-10.711V378.579z M929.182,346.447l10.71,0.001v10.71h-10.71V346.447z M929.182,367.867l32.131,0.002v10.71h-32.13
		L929.182,367.867z M929.182,432.131h32.131v10.711h-32.131V432.131z M939.892,335.737h10.71v10.709l-10.71,0.001V335.737z
		 M950.602,346.447l10.711,0v10.711h-10.711V346.447z M961.313,421.421h10.711v10.709l-10.711,0.001V421.421z"/>
	<path id="tVoeux1_1_" fill="#FFFFFF" d="M1004.154,357.158l10.711,0v10.71h21.42v10.711h-21.42l0.001,53.552l-10.712,0.001V378.58
		l-10.711-0.001v-10.711h10.711V357.158z M1014.866,432.131h32.13l-0.001,10.711l-32.13-0.001L1014.866,432.131z"/>
	<path id="eVoeux4_1_" fill="#FFFFFF" d="M1057.706,378.579h10.711V400h32.131v-21.421l10.711-0.001v32.132l-42.842-0.001v21.422
		h-10.711V378.579z M1068.417,367.868h32.131v10.711h-32.131V367.868z M1068.417,432.131h32.131v10.711l-32.131,0.001V432.131z
		 M1100.548,421.421l10.711-0.001v10.711h-10.711V421.421z"/>
	<path id="sVoeux3_1_" fill="#FFFFFF" d="M1132.679,378.579h10.711V400h-10.71L1132.679,378.579z M1132.68,421.42l10.709,0.001
		l0.001,10.71h-10.71V421.42z M1143.39,367.868h32.133l-0.001,10.711h-32.132V367.868z M1143.39,400h32.132v10.71h-32.132V400z
		 M1143.39,432.131h32.132l0.001,10.711h-32.133V432.131z M1175.521,378.579h10.71v10.709l-10.71,0.001V378.579z M1175.521,410.71
		h10.71v21.421h-10.71V410.71z"/>
</g>
</svg>
