<?xml version="1.0" encoding="utf-8"?>
<!-- Generator: Adobe Illustrator 16.0.0, SVG Export Plug-In . SVG Version: 6.00 Build 0)  -->
<!DOCTYPE svg PUBLIC "-//W3C//DTD SVG 1.1//EN" "http://www.w3.org/Graphics/SVG/1.1/DTD/svg11.dtd">
<svg version="1.1" xmlns="http://www.w3.org/2000/svg" xmlns:xlink="http://www.w3.org/1999/xlink" x="0px" y="0px" width="1280px"
	 height="800px" viewBox="0 0 1280 800" enable-background="new 0 0 1280 800" xml:space="preserve">
<g id="santaFont">
	<rect x="87" y="286.242" fill="none" width="1106" height="198"/>
	<text transform="matrix(1 0 0 1 323.7769 465.2393)" font-family="'ArialMT'" font-size="250">*&lt;]:{)}</text>
</g>
<!-- <g id="santaVector" display="none">
	<g id="Santa_1" display="inline">
		<path fill="#009245" d="M331.224,319.079l5.615-17.334c12.939,4.559,22.339,8.505,28.198,11.841
			c-1.547-14.729-2.361-24.86-2.441-30.396h17.7c-0.244,8.057-1.181,18.148-2.808,30.273c8.381-4.23,17.984-8.137,28.809-11.719
			l5.615,17.334c-10.336,3.418-20.468,5.697-30.396,6.836c4.963,4.314,11.963,12.005,20.996,23.071l-14.648,10.376
			c-4.721-6.428-10.296-15.177-16.724-26.245c-6.023,11.475-11.313,20.224-15.869,26.245l-14.404-10.376
			c9.439-11.637,16.193-19.327,20.264-23.071C350.633,323.882,340.663,321.603,331.224,319.079z"/>
		<path fill="#009245" d="M434.373,386.95v-20.508l118.53-50.049v21.851l-93.994,38.575l93.994,38.939v21.852L434.373,386.95z"/>
		<path fill="#009245" d="M619.92,514.88h-48.462v-18.188h26.489V304.431h-26.489v-18.188h48.462V514.88z"/>
		<path fill="#009245" d="M658.737,360.583v-25.024h25.025v25.024H658.737z M658.737,465.198v-25.025h25.025v25.025H658.737z"/>
		<path fill="#009245" d="M712.57,390.491c6.266-0.162,11.372-1.851,15.319-5.066c3.947-3.214,6.571-7.629,7.874-13.244
			c1.301-5.616,1.993-15.218,2.075-28.81c0.08-13.59,0.324-22.541,0.732-26.855c0.732-6.836,2.095-12.329,4.09-16.479
			c1.993-4.15,4.455-7.465,7.385-9.948c2.93-2.481,6.672-4.374,11.23-5.677c3.092-0.813,8.137-1.221,15.137-1.221h6.836v19.165
			h-3.784c-8.465,0-14.08,1.526-16.846,4.578c-2.768,3.052-4.15,9.868-4.15,20.446c0,21.322-0.448,34.79-1.343,40.405
			c-1.465,8.71-3.967,15.423-7.508,20.142c-3.539,4.721-9.094,8.912-16.662,12.574c8.951,3.744,15.441,9.46,19.471,17.15
			c4.027,7.69,6.042,20.285,6.042,37.781c0,15.869,0.162,25.309,0.488,28.32c0.65,5.533,2.299,9.398,4.944,11.596
			c2.644,2.197,7.831,3.297,15.563,3.297h3.784v19.164h-6.836c-7.977,0-13.754-0.652-17.334-1.953
			c-5.209-1.873-9.521-4.902-12.939-9.094s-5.636-9.502-6.652-15.93c-1.019-6.43-1.568-16.969-1.648-31.617
			c-0.082-14.648-0.774-24.779-2.075-30.395c-1.303-5.615-3.927-10.051-7.874-13.307c-3.947-3.254-9.054-4.963-15.319-5.127V390.491
			z"/>
		<path fill="#009245" d="M819.992,517.81h-15.747c24.332-39.063,36.499-78.164,36.499-117.309c0-15.299-1.751-30.477-5.249-45.533
			c-2.768-12.207-6.634-23.926-11.597-35.156c-3.174-7.324-9.726-19.531-19.653-36.621h15.747
			c15.299,20.428,26.611,40.936,33.936,61.523c6.266,17.742,9.399,36.297,9.399,55.664c0,21.973-4.211,43.213-12.635,63.721
			C842.271,484.606,832.035,502.509,819.992,517.81z"/>
		<path fill="#009245" d="M948.776,390.491v19.896c-6.268,0.164-11.373,1.873-15.32,5.127c-3.947,3.256-6.572,7.672-7.873,13.245
			c-1.303,5.575-1.995,15.157-2.075,28.747c-0.082,13.59-0.326,22.541-0.732,26.855c-0.732,6.916-2.096,12.432-4.089,16.541
			c-1.995,4.109-4.456,7.404-7.386,9.889c-2.93,2.48-6.674,4.373-11.23,5.676c-3.094,0.895-8.139,1.342-15.137,1.342h-6.836v-19.164
			h3.784c8.463,0,14.078-1.525,16.846-4.578c2.766-3.051,4.15-9.908,4.15-20.568c0-20.344,0.366-33.244,1.099-38.697
			c1.301-9.033,3.906-16.254,7.813-21.667c3.906-5.411,9.439-9.622,16.602-12.634c-9.359-4.475-15.951-10.396-19.775-17.762
			c-3.826-7.364-5.737-19.795-5.737-37.293c0-15.869-0.204-25.349-0.61-28.442c-0.57-5.451-2.178-9.256-4.821-11.413
			c-2.646-2.155-7.834-3.235-15.564-3.235h-3.784V283.19h6.836c7.975,0,13.752,0.652,17.334,1.953
			c5.207,1.791,9.521,4.803,12.939,9.033c3.418,4.232,5.635,9.563,6.653,15.991c1.017,6.43,1.565,16.968,1.647,31.616
			c0.08,14.648,0.772,24.762,2.075,30.335c1.301,5.575,3.926,9.991,7.873,13.245C937.403,388.62,942.509,390.329,948.776,390.491z"
			/>
	</g>
</g> -->
<g id="greetings">
	<rect x="130.763" y="753" fill="none" width="1106" height="47"/>
	<text transform="matrix(1 0 0 1 1077.9502 771.5957)" fill="#FFFFFF" font-family="'PixelOperator'" font-size="33">* Joyeux Noël</text>
</g>
</svg>